<?xml version="1.0" standalone="no"?>
<!DOCTYPE svg PUBLIC "-//W3C//DTD SVG 20010904//EN"
 "http://www.w3.org/TR/2001/REC-SVG-20010904/DTD/svg10.dtd">
<svg version="1.0" xmlns="http://www.w3.org/2000/svg"
 width="246.000000pt" height="246.000000pt" viewBox="0 0 246.000000 246.000000"
 preserveAspectRatio="xMidYMid meet">
<metadata>
Created by potrace 1.11, written by Peter Selinger 2001-2013
</metadata>
<g transform="translate(0.000000,246.000000) scale(0.100000,-0.100000)"
fill="#000000" stroke="none">
<path d="M1430 2249 c-32 -6 -99 -32 -160 -63 -58 -29 -159 -74 -225 -100
-137 -54 -170 -70 -204 -100 -17 -15 -25 -17 -28 -8 -3 6 -9 12 -15 12 -7 0
-6 -5 1 -14 9 -11 4 -20 -23 -44 -34 -29 -177 -210 -157 -197 7 3 8 0 5 -9 -3
-9 -10 -13 -15 -10 -5 3 -7 -1 -4 -8 7 -19 -21 -52 -37 -42 -11 6 -11 5 0 -8
19 -23 5 -67 -35 -108 -18 -19 -33 -38 -33 -43 0 -4 -4 -6 -9 -2 -5 3 -13 0
-17 -6 -4 -8 -3 -9 4 -5 18 11 14 -8 -6 -35 -25 -33 -57 -111 -77 -189 -14
-54 -15 -93 -10 -236 7 -171 7 -172 -20 -240 -33 -83 -31 -158 7 -226 48 -87
162 -141 256 -120 l41 10 73 -72 c57 -56 94 -82 168 -118 118 -58 180 -72 300
-71 157 1 291 47 413 144 50 40 85 58 165 84 123 40 180 72 250 139 121 116
147 266 85 490 -14 50 -15 71 -4 149 6 49 21 109 32 134 11 24 17 49 13 55 -5
7 -3 8 5 3 9 -5 12 -1 11 11 -1 11 -1 28 0 39 2 17 3 16 9 -5 7 -22 9 -18 19
28 14 63 16 114 3 94 -6 -10 -10 -9 -14 7 -3 13 -1 19 5 15 6 -4 8 2 3 17 -13
44 -31 74 -43 72 -6 -2 -9 3 -7 10 6 15 -52 50 -67 40 -6 -3 -8 -1 -5 4 4 6
-6 15 -21 21 -42 17 -105 32 -110 27 -3 -3 -16 8 -28 23 -22 25 -32 51 -79
201 -40 132 -148 224 -290 250 -32 6 -61 10 -64 10 -3 -1 -31 -5 -61 -10z
m690 -543 c0 -11 -19 -15 -25 -6 -3 5 1 10 9 10 9 0 16 -2 16 -4z m51 -77 c-5
-13 -10 -19 -10 -12 -1 15 10 45 15 40 3 -2 0 -15 -5 -28z m-144 -31 c-3 -7
-5 -2 -5 12 0 14 2 19 5 13 2 -7 2 -19 0 -25z m15 -50 c-8 -8 -9 -4 -5 13 4
13 8 18 11 10 2 -7 -1 -18 -6 -23z m159 -59 c-5 -13 -10 -19 -10 -12 -1 15 10
45 15 40 3 -2 0 -15 -5 -28z m-124 -11 c-3 -8 -6 -5 -6 6 -1 11 2 17 5 13 3
-3 4 -12 1 -19z m-20 -100 c-3 -7 -5 -2 -5 12 0 14 2 19 5 13 2 -7 2 -19 0
-25z m20 0 c-3 -8 -6 -5 -6 6 -1 11 2 17 5 13 3 -3 4 -12 1 -19z m45 -70 c-8
-8 -9 -4 -5 13 4 13 8 18 11 10 2 -7 -1 -18 -6 -23z m-45 -30 c-3 -8 -6 -5 -6
6 -1 11 2 17 5 13 3 -3 4 -12 1 -19z m7 -54 c3 -8 2 -12 -4 -9 -6 3 -10 10
-10 16 0 14 7 11 14 -7z m18 -46 c-8 -8 -9 -4 -5 13 4 13 8 18 11 10 2 -7 -1
-18 -6 -23z"/>
<path d="M758 2003 c7 -3 16 -2 19 1 4 3 -2 6 -13 5 -11 0 -14 -3 -6 -6z"/>
<path d="M651 1870 c0 -8 4 -22 9 -30 12 -18 12 -2 0 25 -6 13 -9 15 -9 5z"/>
<path d="M570 1700 c0 -5 5 -10 10 -10 6 0 10 5 10 10 0 6 -4 10 -10 10 -5 0
-10 -4 -10 -10z"/>
<path d="M346 1665 c-9 -26 -7 -32 5 -12 6 10 9 21 6 23 -2 3 -7 -2 -11 -11z"/>
</g>
</svg>
